<?xml version="1.0" standalone="no"?>
<!DOCTYPE svg PUBLIC "-//W3C//DTD SVG 20010904//EN"
 "http://www.w3.org/TR/2001/REC-SVG-20010904/DTD/svg10.dtd">
<svg version="1.0" xmlns="http://www.w3.org/2000/svg"
 width="1064.000000pt" height="1280.000000pt" viewBox="0 0 1064.000000 1280.000000"
 preserveAspectRatio="xMidYMid meet">
<g transform="translate(0.000000,1280.000000) scale(0.100000,-0.100000)"
fill="#000000" stroke="none">
<path d="M4500 12780 c-62 -24 -129 -85 -154 -139 -21 -45 -21 -56 -21 -671 0
-690 -3 -656 64 -733 18 -19 53 -46 79 -59 43 -21 63 -23 252 -28 l205 -5 3
-254 c1 -168 -1 -258 -8 -266 -6 -7 -43 -16 -83 -20 -1032 -96 -2006 -485
-2809 -1122 -65 -51 -121 -93 -126 -93 -11 0 -132 124 -132 135 0 6 38 49 86
95 47 47 94 100 105 118 25 40 28 125 6 167 -23 44 -627 642 -660 655 -44 16
-104 12 -145 -9 -48 -25 -788 -767 -801 -804 -15 -39 -14 -102 3 -140 22 -50
634 -654 671 -662 17 -4 36 -9 43 -11 7 -2 34 1 59 8 38 9 65 29 148 110 56
54 106 98 112 98 15 0 113 -105 113 -121 0 -9 -12 -26 -26 -40 -89 -82 -359
-409 -495 -599 -562 -789 -881 -1677 -963 -2675 -33 -400 -28 -601 25 -1045
185 -1550 1057 -2944 2379 -3805 659 -429 1411 -706 2196 -810 483 -63 905
-63 1388 0 1162 153 2230 680 3060 1511 768 767 1275 1734 1470 2799 56 310
103 836 92 1045 -29 551 -94 970 -216 1389 -559 1928 -2171 3383 -4145 3742
-152 27 -376 57 -495 65 -59 4 -104 12 -110 19 -7 8 -9 104 -8 266 l3 254 205
5 c189 5 209 7 252 28 53 26 103 79 124 128 11 27 14 152 14 666 0 717 4 678
-82 753 -89 78 -53 75 -889 74 -688 -1 -747 -2 -789 -19z m1125 -2940 c1135
-84 2161 -559 2945 -1366 708 -728 1130 -1622 1257 -2664 26 -208 25 -783 0
-990 -132 -1062 -570 -1971 -1303 -2704 -733 -733 -1641 -1170 -2704 -1303
-208 -25 -792 -25 -1000 0 -1063 133 -1971 570 -2704 1303 -733 733 -1171
1642 -1303 2704 -25 207 -26 782 0 990 81 661 264 1220 580 1770 552 960 1467
1704 2517 2045 552 179 1160 255 1715 215z"/>
<path d="M5280 9360 l0 -230 40 0 40 0 0 230 0 230 -40 0 -40 0 0 -230z"/>
<path d="M3188 9022 c-16 -9 -28 -22 -28 -28 0 -6 50 -97 111 -202 l111 -192
28 15 c16 8 31 19 35 25 6 9 -193 362 -218 387 -9 9 -18 8 -39 -5z"/>
<path d="M7407 9018 c-36 -57 -207 -357 -209 -367 -2 -6 11 -20 28 -31 l32
-21 20 33 c44 73 203 351 205 359 1 5 -12 18 -30 30 l-32 20 -14 -23z"/>
<path d="M5277 8828 c-104 -192 -93 -128 -106 -608 -6 -234 -16 -580 -21 -770
-23 -817 -30 -1059 -35 -1300 -3 -140 -8 -265 -11 -277 -3 -14 -24 -33 -62
-53 -212 -113 -330 -356 -288 -597 40 -234 218 -419 451 -468 130 -27 247 -11
375 51 210 103 343 350 311 578 -28 196 -124 340 -294 436 l-62 36 -7 214 c-3
118 -11 413 -17 655 -18 727 -31 1200 -41 1573 l-10 353 -65 129 c-36 72 -67
130 -69 130 -3 0 -24 -37 -49 -82z m135 -3339 c76 -39 120 -137 98 -220 -16
-58 -81 -123 -139 -139 -140 -37 -276 91 -241 229 33 131 161 190 282 130z"/>
<path d="M1626 7459 c-10 -17 -14 -35 -10 -39 14 -13 374 -220 383 -220 10 0
41 45 41 58 0 8 -379 232 -392 232 -2 0 -12 -14 -22 -31z"/>
<path d="M8805 7384 c-99 -58 -186 -109 -194 -113 -11 -7 -10 -13 3 -39 9 -18
21 -32 27 -32 12 0 358 197 377 215 12 10 11 18 -2 44 -9 17 -20 31 -24 31 -4
-1 -88 -48 -187 -106z"/>
<path d="M1062 5358 c-15 -15 -15 -51 0 -66 9 -9 73 -12 225 -12 200 0 213 1
223 19 7 13 7 28 0 45 l-10 26 -213 0 c-152 0 -216 -3 -225 -12z"/>
<path d="M9134 5356 c-3 -8 -4 -27 -2 -43 l3 -28 205 -3 c113 -1 215 0 228 3
17 4 22 12 22 39 0 22 -6 36 -16 40 -9 3 -110 6 -225 6 -172 0 -211 -3 -215
-14z"/>
<path d="M1805 3344 c-99 -58 -184 -109 -188 -114 -8 -7 -2 -23 22 -59 7 -11
49 10 205 100 108 62 196 117 196 122 0 15 -32 57 -44 57 -6 -1 -92 -48 -191
-106z"/>
<path d="M8615 3419 c-9 -17 -15 -32 -13 -34 8 -7 388 -225 393 -225 9 0 36
61 30 69 -7 12 -370 221 -384 221 -6 0 -18 -14 -26 -31z"/>
<path d="M3275 1864 c-59 -103 -110 -194 -112 -204 -5 -20 52 -49 66 -34 23
24 220 377 215 385 -3 5 -18 16 -34 24 l-28 15 -107 -186z"/>
<path d="M7222 2028 l-33 -20 19 -32 c10 -17 60 -104 112 -193 58 -101 100
-163 109 -163 9 0 26 8 38 18 l22 17 -110 190 c-61 105 -113 193 -117 197 -4
4 -22 -2 -40 -14z"/>
<path d="M5280 1290 l0 -230 40 0 40 0 0 230 0 230 -40 0 -40 0 0 -230z"/>
</g>
</svg>
